<mxfile host="app.diagrams.net" modified="2021-06-05T05:55:18.490Z" agent="5.0 (X11; Linux x86_64) AppleWebKit/537.36 (KHTML, like Gecko) Chrome/90.0.4430.212 Safari/537.36" etag="FbChMFqdcW5R3tDuyPph" version="14.7.6" type="github">
  <diagram id="MqI81qCm6mwfX92G_5o7" name="Page-1">
    <mxGraphModel dx="798" dy="462" grid="1" gridSize="10" guides="1" tooltips="1" connect="1" arrows="1" fold="1" page="1" pageScale="1" pageWidth="827" pageHeight="1169" math="0" shadow="0">
      <root>
        <mxCell id="0" />
        <mxCell id="1" parent="0" />
        <mxCell id="Vt6wYl9N-vJ9xgdhq9Ds-1" value="&lt;span style=&quot;color: rgba(0 , 0 , 0 , 0) ; font-family: monospace ; font-size: 0px&quot;&gt;%3CmxGraphModel%3E%3Croot%3E%3CmxCell%20id%3D%220%22%2F%3E%3CmxCell%20id%3D%221%22%20parent%3D%220%22%2F%3E%3CmxCell%20id%3D%222%22%20value%3D%22Varchar%22%20style%3D%22rounded%3D0%3BwhiteSpace%3Dwrap%3Bhtml%3D1%3B%22%20vertex%3D%221%22%20parent%3D%221%22%3E%3CmxGeometry%20x%3D%22260%22%20y%3D%22270%22%20width%3D%22120%22%20height%3D%2230%22%20as%3D%22geometry%22%2F%3E%3C%2FmxCell%3E%3C%2Froot%3E%3C%2FmxGraphModel%3E&lt;/span&gt;" style="whiteSpace=wrap;html=1;aspect=fixed;" parent="1" vertex="1">
          <mxGeometry x="80" y="230" width="320" height="320" as="geometry" />
        </mxCell>
        <mxCell id="Vt6wYl9N-vJ9xgdhq9Ds-2" value="Message" style="rounded=1;whiteSpace=wrap;html=1;" parent="1" vertex="1">
          <mxGeometry x="90" y="270" width="120" height="30" as="geometry" />
        </mxCell>
        <mxCell id="Vt6wYl9N-vJ9xgdhq9Ds-3" value="Message_From" style="rounded=1;whiteSpace=wrap;html=1;" parent="1" vertex="1">
          <mxGeometry x="90" y="330" width="120" height="30" as="geometry" />
        </mxCell>
        <mxCell id="Vt6wYl9N-vJ9xgdhq9Ds-4" value="Message_To" style="rounded=1;whiteSpace=wrap;html=1;" parent="1" vertex="1">
          <mxGeometry x="90" y="390" width="120" height="30" as="geometry" />
        </mxCell>
        <mxCell id="Vt6wYl9N-vJ9xgdhq9Ds-5" value="Message_Id" style="rounded=1;whiteSpace=wrap;html=1;" parent="1" vertex="1">
          <mxGeometry x="90" y="450" width="120" height="30" as="geometry" />
        </mxCell>
        <mxCell id="Vt6wYl9N-vJ9xgdhq9Ds-6" value="Time_stamp" style="rounded=1;whiteSpace=wrap;html=1;" parent="1" vertex="1">
          <mxGeometry x="90" y="500" width="120" height="30" as="geometry" />
        </mxCell>
        <mxCell id="Vt6wYl9N-vJ9xgdhq9Ds-7" value="Varchar" style="rounded=0;whiteSpace=wrap;html=1;" parent="1" vertex="1">
          <mxGeometry x="260" y="270" width="120" height="30" as="geometry" />
        </mxCell>
        <mxCell id="Vt6wYl9N-vJ9xgdhq9Ds-10" value="BigInt(64-bit)" style="rounded=0;whiteSpace=wrap;html=1;" parent="1" vertex="1">
          <mxGeometry x="260" y="330" width="120" height="30" as="geometry" />
        </mxCell>
        <mxCell id="Vt6wYl9N-vJ9xgdhq9Ds-11" value="BigInt&lt;span style=&quot;color: rgba(0 , 0 , 0 , 0) ; font-family: monospace ; font-size: 0px&quot;&gt;%3CmxGraphModel%3E%3Croot%3E%3CmxCell%20id%3D%220%22%2F%3E%3CmxCell%20id%3D%221%22%20parent%3D%220%22%2F%3E%3CmxCell%20id%3D%222%22%20value%3D%22Varchar%22%20style%3D%22rounded%3D0%3BwhiteSpace%3Dwrap%3Bhtml%3D1%3B%22%20vertex%3D%221%22%20parent%3D%221%22%3E%3CmxGeometry%20x%3D%22260%22%20y%3D%22270%22%20width%3D%22120%22%20height%3D%2230%22%20as%3D%22geometry%22%2F%3E%3C%2FmxCell%3E%3C%2Froot%3E%3C%2FmxGraphModel%3E(64-BI&lt;/span&gt;" style="rounded=0;whiteSpace=wrap;html=1;" parent="1" vertex="1">
          <mxGeometry x="260" y="390" width="120" height="30" as="geometry" />
        </mxCell>
        <mxCell id="Vt6wYl9N-vJ9xgdhq9Ds-12" value="BigInt" style="rounded=0;whiteSpace=wrap;html=1;" parent="1" vertex="1">
          <mxGeometry x="260" y="450" width="120" height="30" as="geometry" />
        </mxCell>
        <mxCell id="Vt6wYl9N-vJ9xgdhq9Ds-13" value="BigInt(64-bit)" style="rounded=0;whiteSpace=wrap;html=1;" parent="1" vertex="1">
          <mxGeometry x="260" y="500" width="120" height="30" as="geometry" />
        </mxCell>
        <mxCell id="Vt6wYl9N-vJ9xgdhq9Ds-14" value="1 TO 1 CHAT" style="rounded=1;whiteSpace=wrap;html=1;" parent="1" vertex="1">
          <mxGeometry x="180" y="230" width="120" height="30" as="geometry" />
        </mxCell>
        <mxCell id="Vt6wYl9N-vJ9xgdhq9Ds-15" value="For group chats we need group_id , mapping each usier_id to group_id.&lt;br&gt;" style="rounded=0;whiteSpace=wrap;html=1;" parent="1" vertex="1">
          <mxGeometry x="210" y="20" width="300" height="60" as="geometry" />
        </mxCell>
        <mxCell id="NmMel21qsUaPyQSseA2x-1" value="" style="rounded=0;whiteSpace=wrap;html=1;" vertex="1" parent="1">
          <mxGeometry x="520" y="230" width="230" height="220" as="geometry" />
        </mxCell>
        <mxCell id="NmMel21qsUaPyQSseA2x-2" value="Message" style="rounded=0;whiteSpace=wrap;html=1;" vertex="1" parent="1">
          <mxGeometry x="530" y="265" width="120" height="35" as="geometry" />
        </mxCell>
        <mxCell id="NmMel21qsUaPyQSseA2x-3" value="Group id" style="rounded=0;whiteSpace=wrap;html=1;" vertex="1" parent="1">
          <mxGeometry x="530" y="265" width="120" height="35" as="geometry" />
        </mxCell>
        <mxCell id="NmMel21qsUaPyQSseA2x-4" value="Time Created" style="rounded=0;whiteSpace=wrap;html=1;" vertex="1" parent="1">
          <mxGeometry x="530" y="320" width="120" height="35" as="geometry" />
        </mxCell>
        <mxCell id="NmMel21qsUaPyQSseA2x-5" value="No of group member" style="rounded=0;whiteSpace=wrap;html=1;" vertex="1" parent="1">
          <mxGeometry x="530" y="385" width="120" height="35" as="geometry" />
        </mxCell>
        <mxCell id="NmMel21qsUaPyQSseA2x-6" value="Group Messaging" style="rounded=0;whiteSpace=wrap;html=1;" vertex="1" parent="1">
          <mxGeometry x="580" y="235" width="120" height="20" as="geometry" />
        </mxCell>
        <mxCell id="NmMel21qsUaPyQSseA2x-7" value="BIGINT" style="rounded=0;whiteSpace=wrap;html=1;" vertex="1" parent="1">
          <mxGeometry x="680" y="265" width="60" height="32.5" as="geometry" />
        </mxCell>
        <mxCell id="NmMel21qsUaPyQSseA2x-8" value="BIGINT" style="rounded=0;whiteSpace=wrap;html=1;" vertex="1" parent="1">
          <mxGeometry x="680" y="320" width="60" height="32.5" as="geometry" />
        </mxCell>
        <mxCell id="NmMel21qsUaPyQSseA2x-9" value="BIGINT" style="rounded=0;whiteSpace=wrap;html=1;" vertex="1" parent="1">
          <mxGeometry x="680" y="385" width="60" height="32.5" as="geometry" />
        </mxCell>
      </root>
    </mxGraphModel>
  </diagram>
</mxfile>
